<svg width="197" height="220" viewBox="0 0 197 220" fill="none" xmlns="http://www.w3.org/2000/svg">
<path d="M15.3749 49.8993C8.39412 44.0418 7.41288 33.5215 14.2479 27.4945C27.4057 15.8922 43.2126 7.5499 60.3887 3.26745C82.9284 -2.35232 106.669 -0.69221 128.207 8.00983C149.745 16.7119 167.976 32.0091 180.285 51.7091C192.595 71.409 198.353 94.5004 196.732 117.674C195.112 140.847 186.197 162.912 171.265 180.707C156.333 198.502 136.151 211.113 113.611 216.733C91.0713 222.352 67.331 220.692 45.7928 211.99C29.38 205.359 14.888 194.898 3.47297 181.577C-2.45668 174.657 -0.0207806 164.376 7.70725 159.547C15.4353 154.718 25.5086 157.232 31.8706 163.756C39.2751 171.35 48.2114 177.376 58.155 181.393C73.2317 187.485 89.8499 188.647 105.628 184.713C121.406 180.779 135.533 171.951 145.985 159.495C156.438 147.038 162.678 131.593 163.812 115.371C164.947 99.1502 160.917 82.9863 152.3 69.1964C143.683 55.4064 130.922 44.6983 115.845 38.6069C100.768 32.5155 84.1499 31.3534 68.3721 35.2872C57.9662 37.8817 48.2782 42.6049 39.8889 49.0939C32.6808 54.6693 22.3556 55.7569 15.3749 49.8993Z" fill="#7579FF"/>
</svg>
