<svg width="220" height="220" viewBox="0 0 220 220" fill="none" xmlns="http://www.w3.org/2000/svg">
<path d="M38.3749 49.8993C31.3941 44.0418 30.4129 33.5213 37.2479 27.4944C52.5803 13.9745 71.469 4.91831 91.8448 1.50858C117.677 -2.81423 144.204 2.22206 166.654 15.7116C189.105 29.2011 206.005 50.2586 214.316 75.0965C222.626 99.9344 221.802 126.923 211.99 151.207C202.179 175.491 184.024 195.477 160.792 207.571C137.56 219.665 110.775 223.072 85.2554 217.181C59.7353 211.289 37.155 196.485 21.5758 175.431C9.28726 158.824 1.99078 139.188 0.353258 118.812C-0.376728 109.728 7.63726 102.842 16.7278 103.478C25.8183 104.113 32.49 112.068 33.8021 121.086C35.6197 133.578 40.4944 145.519 48.103 155.801C59.0085 170.539 74.8147 180.902 92.6788 185.027C110.543 189.151 129.292 186.766 145.555 178.3C161.817 169.834 174.525 155.844 181.393 138.845C188.261 121.846 188.838 102.954 183.021 85.5675C177.203 68.181 165.373 53.4408 149.658 43.9981C133.943 34.5554 115.374 31.03 97.2913 34.056C84.6753 36.1672 72.8738 41.3708 62.889 49.0938C55.6808 54.6691 45.3556 55.7569 38.3749 49.8993Z" fill="#7579FF"/>
</svg>
